<svg width="81" height="21" viewBox="0 0 81 21" fill="none" xmlns="http://www.w3.org/2000/svg">
<path d="M0 20.7168H5.72322V14.5665H8.89363C13.7007 14.5665 16.9226 11.7847 16.9226 7.3237C16.9226 2.9133 13.7831 0 9.0995 0H0V20.7168ZM5.72322 10.1965V4.49133H7.74076C9.748 4.49133 10.9523 5.54335 10.9523 7.3237C10.9523 9.09393 9.748 10.1965 7.74076 10.1965H5.72322Z" fill="black"/>
<path d="M24.7869 0H19.1048V20.7168H24.7869V0Z" fill="black"/>
<path d="M37.9343 13.9191C37.9446 15.4566 37.0388 16.3873 35.6286 16.3873C34.1978 16.3873 33.3743 15.4566 33.364 13.9191V5.17919H27.6819V15.0925C27.6922 18.4913 29.8745 20.9191 33.1993 20.9191C35.5565 20.9191 37.3682 19.7457 38.0579 17.763H38.2225V20.7168H43.6164V5.17919H37.9343V13.9191Z" fill="black"/>
<path d="M52.2295 20.9191C54.4529 20.9191 55.9764 19.7457 56.6352 18.1676H56.7587V20.7168H62.3995V0H56.7175V7.89017H56.6352C56.0175 6.31214 54.5353 4.97688 52.1883 4.97688C49.0591 4.97688 46.0122 7.3237 46.0122 12.948C46.0122 18.3295 48.8532 20.9191 52.2295 20.9191ZM54.3294 16.6301C52.7648 16.6301 51.8589 15.2543 51.8589 12.948C51.8589 10.6416 52.7648 9.2659 54.3294 9.2659C55.894 9.2659 56.841 10.6416 56.841 12.948C56.841 15.2139 55.894 16.6301 54.3294 16.6301Z" fill="black"/>
<path d="M72.8063 21C77.9531 21 81 17.763 81 12.9884C81 8.21387 77.9531 4.97688 72.8063 4.97688C67.6595 4.97688 64.6127 8.21387 64.6127 12.9884C64.6127 17.763 67.6595 21 72.8063 21ZM72.8475 16.8728C71.3241 16.8728 70.4182 15.3858 70.4182 12.948C70.4182 10.5101 71.3241 9.02312 72.8475 9.02312C74.2886 9.02312 75.1944 10.5101 75.1944 12.948C75.1944 15.3858 74.2886 16.8728 72.8475 16.8728Z" fill="black"/>
</svg>
