<svg width="37" height="37" viewBox="0 0 37 37" fill="none" xmlns="http://www.w3.org/2000/svg">
<path d="M10.7917 20.0416H9.25002C7.54714 20.0416 6.16669 21.4221 6.16669 23.125V27.75C6.16669 29.4528 7.54714 30.8333 9.25002 30.8333H10.7917C12.4946 30.8333 13.875 29.4528 13.875 27.75V23.125C13.875 21.4221 12.4946 20.0416 10.7917 20.0416Z" stroke="white" stroke-width="1.5" stroke-linecap="round" stroke-linejoin="round"/>
<path d="M27.75 20.0416H26.2083C24.5055 20.0416 23.125 21.4221 23.125 23.125V27.75C23.125 29.4528 24.5055 30.8333 26.2083 30.8333H27.75C29.4529 30.8333 30.8333 29.4528 30.8333 27.75V23.125C30.8333 21.4221 29.4529 20.0416 27.75 20.0416Z" stroke="white" stroke-width="1.5" stroke-linecap="round" stroke-linejoin="round"/>
<path d="M6.16669 23.125V18.5C6.16669 15.229 7.46609 12.0919 9.77904 9.77898C12.092 7.46603 15.229 6.16663 18.5 6.16663C21.771 6.16663 24.9081 7.46603 27.221 9.77898C29.534 12.0919 30.8334 15.229 30.8334 18.5V23.125" stroke="white" stroke-width="1.5" stroke-linecap="round" stroke-linejoin="round"/>
</svg>
