<svg width="17" height="16" viewBox="0 0 17 16" fill="none" xmlns="http://www.w3.org/2000/svg">
<path d="M8.5019 3.8978C6.08985 3.8978 4.14428 5.72933 4.14428 8C4.14428 10.2707 6.08985 12.1022 8.5019 12.1022C10.9139 12.1022 12.8595 10.2707 12.8595 8C12.8595 5.72933 10.9139 3.8978 8.5019 3.8978ZM8.5019 10.667C6.94317 10.667 5.66888 9.47094 5.66888 8C5.66888 6.52906 6.93938 5.33304 8.5019 5.33304C10.0644 5.33304 11.3349 6.52906 11.3349 8C11.3349 9.47094 10.0606 10.667 8.5019 10.667ZM14.0542 3.73C14.0542 4.26197 13.5991 4.68682 13.0378 4.68682C12.4727 4.68682 12.0214 4.2584 12.0214 3.73C12.0214 3.20161 12.4765 2.77318 13.0378 2.77318C13.5991 2.77318 14.0542 3.20161 14.0542 3.73ZM16.9403 4.7011C16.8758 3.41939 16.5648 2.28406 15.5674 1.34866C14.5737 0.413254 13.3677 0.120495 12.0062 0.0562312C10.603 -0.0187437 6.39704 -0.0187437 4.99381 0.0562312C3.63609 0.116925 2.43006 0.409684 1.43263 1.34509C0.435193 2.28049 0.127998 3.41582 0.0597323 4.69753C-0.0199108 6.01852 -0.0199108 9.97791 0.0597323 11.2989C0.124205 12.5806 0.435193 13.7159 1.43263 14.6513C2.43006 15.5867 3.63229 15.8795 4.99381 15.9438C6.39704 16.0187 10.603 16.0187 12.0062 15.9438C13.3677 15.8831 14.5737 15.5903 15.5674 14.6513C16.561 13.7159 16.872 12.5806 16.9403 11.2989C17.0199 9.97791 17.0199 6.02209 16.9403 4.7011ZM15.1274 12.7163C14.8316 13.416 14.259 13.9551 13.5118 14.2372C12.393 14.6549 9.73826 14.5585 8.5019 14.5585C7.26553 14.5585 4.60697 14.6513 3.49197 14.2372C2.74863 13.9587 2.17596 13.4196 1.87635 12.7163C1.43263 11.6631 1.53503 9.1639 1.53503 8C1.53503 6.8361 1.43642 4.33337 1.87635 3.28372C2.17217 2.58396 2.74484 2.04485 3.49197 1.7628C4.61076 1.34509 7.26553 1.44148 8.5019 1.44148C9.73826 1.44148 12.3968 1.34866 13.5118 1.7628C14.2552 2.04128 14.8278 2.58039 15.1274 3.28372C15.5712 4.33694 15.4688 6.8361 15.4688 8C15.4688 9.1639 15.5712 11.6666 15.1274 12.7163Z" fill="white"/>
</svg>
