<svg width="126" height="51" viewBox="0 0 126 51" fill="none" xmlns="http://www.w3.org/2000/svg">
<path d="M0 21.1328C0 20.1529 0.803768 19.3586 1.79527 19.3586H3.48765C4.37797 19.3586 5.09973 20.0718 5.09973 20.9516V22.4886C5.09973 22.5196 5.12522 22.5448 5.15667 22.5448C5.17681 22.5448 5.1955 22.5342 5.20581 22.5172C5.97948 21.2334 7.01774 20.2984 8.3206 19.7126C9.63279 19.1227 11.0494 18.8276 12.5704 18.8276C14.2106 18.8276 15.6868 19.1227 16.9991 19.7126C18.3112 20.2732 19.4296 21.0551 20.3542 22.058C21.2786 23.0611 21.9795 24.2413 22.4566 25.5983C22.9338 26.9554 23.1724 28.4157 23.1724 29.9794C23.1724 31.5429 22.9189 33.0032 22.4119 34.3603C21.905 35.7175 21.1892 36.8975 20.2646 37.9006C19.37 38.9037 18.2814 39.7003 16.9991 40.2902C15.7167 40.8508 14.315 41.1311 12.794 41.1311C11.78 41.1311 10.8854 41.0279 10.11 40.8214C9.33456 40.6149 8.64865 40.3493 8.05219 40.0248C7.45573 39.7003 6.94874 39.3609 6.53122 39.007C6.12755 38.6362 5.79358 38.2792 5.5293 37.9359C5.51222 37.9137 5.48574 37.9006 5.45758 37.9006C5.40817 37.9006 5.36812 37.9402 5.36812 37.9889V48.9156C5.36812 49.8954 4.56436 50.6897 3.57285 50.6897H1.79527C0.803768 50.6897 0 49.8954 0 48.9156V21.1328ZM17.8043 29.9794C17.8043 29.1533 17.6552 28.3568 17.3569 27.5896C17.0885 26.8226 16.671 26.144 16.1044 25.554C15.5676 24.9641 14.9115 24.492 14.1361 24.138C13.3607 23.7839 12.4809 23.6068 11.4967 23.6068C10.5126 23.6068 9.63279 23.7839 8.8574 24.138C8.08201 24.492 7.41099 24.9641 6.84437 25.554C6.30755 26.144 5.89002 26.8226 5.59179 27.5896C5.3234 28.3568 5.18918 29.1533 5.18918 29.9794C5.18918 30.8054 5.3234 31.602 5.59179 32.369C5.89002 33.1361 6.30755 33.8146 6.84437 34.4046C7.41099 34.9947 8.08201 35.4666 8.8574 35.8208C9.63279 36.1747 10.5126 36.3518 11.4967 36.3518C12.4809 36.3518 13.3607 36.1747 14.1361 35.8208C14.9115 35.4666 15.5676 34.9947 16.1044 34.4046C16.671 33.8146 17.0885 33.1361 17.3569 32.369C17.6552 31.602 17.8043 30.8054 17.8043 29.9794Z" fill="white"/>
<path d="M26.0689 8.32196C26.0689 7.32517 26.9363 6.51709 28.0063 6.51709H29.9246C30.9945 6.51709 31.862 7.32517 31.862 8.32196V38.7467C31.862 39.7435 30.9945 40.5516 29.9246 40.5516H28.0063C26.9363 40.5516 26.0689 39.7435 26.0689 38.7467V8.32196Z" fill="white"/>
<path d="M55.7587 38.2516C55.7587 39.2293 54.9567 40.0218 53.9673 40.0218H52.3903C51.4401 40.0218 50.6699 39.2608 50.6699 38.3218V36.6759C50.6699 36.6462 50.6454 36.6219 50.6153 36.6219C50.5942 36.6219 50.5748 36.634 50.5659 36.6529C50.0596 37.6996 49.2909 38.6166 48.2594 39.4036C47.2178 40.1691 45.8042 40.5518 44.0187 40.5518C42.5902 40.5518 41.3701 40.3309 40.3583 39.8894C39.3762 39.4185 38.5727 38.8002 37.9479 38.0349C37.3229 37.2401 36.8764 36.3422 36.6086 35.3415C36.3408 34.3407 36.207 33.2957 36.207 32.2065V20.5978C36.207 19.6202 37.009 18.8276 37.9984 18.8276H39.7721C40.7615 18.8276 41.5635 19.6202 41.5635 20.5978V29.5572C41.5635 30.146 41.5933 30.8082 41.6529 31.5441C41.7124 32.2506 41.8611 32.9277 42.0992 33.5752C42.367 34.1934 42.7539 34.7234 43.2598 35.1649C43.7955 35.577 44.5395 35.783 45.4918 35.783C46.3846 35.783 47.1286 35.6357 47.7237 35.3415C48.3488 35.0471 48.8547 34.6497 49.2414 34.1493C49.6581 33.6489 49.9557 33.0748 50.1343 32.4272C50.3127 31.7797 50.4021 31.1026 50.4021 30.3961V20.5978C50.4021 19.6202 51.2041 18.8276 52.1936 18.8276H53.9673C54.9567 18.8276 55.7587 19.6202 55.7587 20.5978V38.2516Z" fill="white"/>
<path d="M76.7278 36.8854C76.7278 36.8542 76.7023 36.8289 76.6709 36.8289C76.6508 36.8289 76.6321 36.8396 76.6217 36.8568C75.8481 38.1424 74.8097 39.0785 73.5069 39.6652C72.1948 40.2561 70.7781 40.5516 69.2572 40.5516C67.5872 40.5516 66.0961 40.2709 64.7837 39.7094C63.5014 39.1187 62.398 38.321 61.4734 37.3165C60.5489 36.3119 59.8482 35.1303 59.371 33.7711C58.8938 32.4122 58.6552 30.9498 58.6552 29.384C58.6552 27.8181 58.9087 26.3557 59.4157 24.9967C59.9227 23.6378 60.6235 22.4559 61.5181 21.4514C62.4427 20.4471 63.5461 19.6641 64.8284 19.1027C66.111 18.5119 67.5125 18.2165 69.0335 18.2165C70.0474 18.2165 70.9422 18.3199 71.7176 18.5267C72.493 18.7335 73.1789 18.9993 73.7753 19.3244C74.3719 19.6493 74.8789 20.0038 75.2963 20.3879C75.7 20.7306 76.0339 21.0733 76.2982 21.4162C76.3153 21.4383 76.3418 21.4514 76.37 21.4514C76.4194 21.4514 76.4594 21.4118 76.4594 21.3629V8.29375C76.4594 7.31254 77.2632 6.51709 78.2547 6.51709H80.0324C81.0237 6.51709 81.8276 7.31254 81.8276 8.29375V38.243C81.8276 39.2242 81.0239 40.0196 80.0324 40.0196H78.34C77.4497 40.0196 76.7278 39.3054 76.7278 38.4244V36.8854ZM64.0232 29.384C64.0232 30.2112 64.1575 31.0089 64.4259 31.777C64.7241 32.5452 65.1417 33.2246 65.6785 33.8155C66.2451 34.4065 66.9161 34.879 67.6915 35.2337C68.4669 35.5881 69.3467 35.7654 70.3309 35.7654C71.3151 35.7654 72.1948 35.5881 72.9701 35.2337C73.7455 34.879 74.4017 34.4065 74.9385 33.8155C75.505 33.2246 75.9226 32.5452 76.191 31.777C76.4892 31.0089 76.6384 30.2112 76.6384 29.384C76.6384 28.5568 76.4892 27.7591 76.191 26.9909C75.9226 26.2228 75.505 25.5432 74.9385 24.9523C74.4017 24.3616 73.7455 23.8888 72.9701 23.5344C72.1948 23.1797 71.3151 23.0024 70.3309 23.0024C69.3467 23.0024 68.4669 23.1797 67.6915 23.5344C66.9161 23.8888 66.2451 24.3616 65.6785 24.9523C65.1417 25.5432 64.7241 26.2228 64.4259 26.9909C64.1575 27.7591 64.0232 28.5568 64.0232 29.384Z" fill="white"/>
<path d="M104.503 37.8825C99.9782 42.4071 92.6423 42.4071 88.1176 37.8825C83.593 33.3577 83.593 26.0218 88.1176 21.4971C92.6423 16.9723 99.9782 16.9723 104.503 21.4971C109.028 26.0218 109.028 33.3577 104.503 37.8825Z" fill="white"/>
<path fill-rule="evenodd" clip-rule="evenodd" d="M113.134 12.7187C108.146 7.65181 102.362 6.05484 98.9631 5.7575C97.9281 5.66699 97.0344 4.82676 97.0344 3.77283V1.69445C97.0344 0.760783 97.7385 -0.0232051 98.6584 0.000524984C103.074 0.114434 110.515 1.98327 117.109 8.6815C123.678 15.353 125.713 23.3231 125.997 27.9658C126.056 28.9285 125.271 29.6897 124.32 29.6897H122.252C121.244 29.6897 120.434 28.8386 120.33 27.8219C119.959 24.1876 118.239 17.9033 113.134 12.7187ZM107.172 19.3512C104.635 16.7738 101.102 15.6062 98.7578 15.1879C97.8076 15.0183 97.0346 14.2129 97.0346 13.2339V11.1234C97.0346 10.1158 97.8503 9.30584 98.8342 9.44153C102.101 9.89203 107.314 11.4208 111.147 15.314C114.982 19.2091 116.487 24.5362 116.929 27.8637C117.062 28.8622 116.264 29.6897 115.271 29.6897H113.197C112.232 29.6897 111.438 28.9053 111.272 27.9408C110.862 25.5487 109.712 21.9309 107.172 19.3512Z" fill="white"/>
</svg>
