<svg width="37" height="37" viewBox="0 0 37 37" fill="none" xmlns="http://www.w3.org/2000/svg">
<path d="M23.125 7.70837C23.125 5.15406 21.0543 3.08337 18.5 3.08337C15.9457 3.08337 13.875 5.15406 13.875 7.70837V15.4167C13.875 17.971 15.9457 20.0417 18.5 20.0417C21.0543 20.0417 23.125 17.971 23.125 15.4167V7.70837Z" stroke="white" stroke-width="1.5" stroke-linecap="round" stroke-linejoin="round"/>
<path d="M7.70831 15.4166C7.70831 18.2788 8.84529 21.0237 10.8691 23.0475C12.8929 25.0713 15.6379 26.2083 18.5 26.2083C21.3621 26.2083 24.107 25.0713 26.1308 23.0475C28.1547 21.0237 29.2917 18.2788 29.2917 15.4166" stroke="white" stroke-width="1.5" stroke-linecap="round" stroke-linejoin="round"/>
<path d="M12.3333 32.375H24.6666" stroke="white" stroke-width="1.5" stroke-linecap="round" stroke-linejoin="round"/>
<path d="M18.5 26.2084V32.375" stroke="white" stroke-width="1.5" stroke-linecap="round" stroke-linejoin="round"/>
</svg>
