<svg width="38" height="38" viewBox="0 0 38 38" fill="none" xmlns="http://www.w3.org/2000/svg">
<path d="M14.25 17.4167C17.7478 17.4167 20.5834 14.5811 20.5834 11.0833C20.5834 7.58553 17.7478 4.75 14.25 4.75C10.7522 4.75 7.91669 7.58553 7.91669 11.0833C7.91669 14.5811 10.7522 17.4167 14.25 17.4167Z" stroke="white" stroke-width="1.5" stroke-linecap="round" stroke-linejoin="round"/>
<path d="M4.75 33.25V30.0833C4.75 28.4036 5.41726 26.7927 6.60499 25.605C7.79272 24.4173 9.40363 23.75 11.0833 23.75H17.4167C19.0964 23.75 20.7073 24.4173 21.895 25.605C23.0827 26.7927 23.75 28.4036 23.75 30.0833V33.25" stroke="white" stroke-width="1.5" stroke-linecap="round" stroke-linejoin="round"/>
<path d="M25 4.95581C26.3623 5.30462 27.5698 6.09692 28.4321 7.2078C29.2944 8.31868 29.7624 9.68496 29.7624 11.0912C29.7624 12.4975 29.2944 13.8638 28.4321 14.9747C27.5698 16.0855 26.3623 16.8778 25 17.2266" stroke="white" stroke-width="1.5" stroke-linecap="round" stroke-linejoin="round"/>
<path d="M32.9166 33.25V30.0834C32.9086 28.6856 32.4383 27.3296 31.5791 26.227C30.7199 25.1244 29.5201 24.337 28.1666 23.9875" stroke="white" stroke-width="1.5" stroke-linecap="round" stroke-linejoin="round"/>
</svg>
